PathFileType	4	(X/Y/Z)	s09c0103.trc
DataRate	CameraRate	NumFrames	NumMarkers	Units	OrigDataRate	OrigDataStartFrame	OrigNumFrames
200	200	6	50	mm	200	0	2000
Frame#	Time	racr			lacr			c7			jug			rlel			rdr			llel			ldr			s2			lic			ric			lasi			rasi			rpsi			lpsi			rgt			lgt			rth1			rth2			rth3			rth4			rlfc			rmfc			rsh1			rsh2			rsh3			rsh4			rlmal			rmmal			rcal			rtoe			rmt5			lth1			lth2			lth4			lth3			llfc			lmfc			llmal			lmmal			lcal			lmt5			lsh1			lsh2			lsh3			lsh4			ltoe			SBIKE			LBIKE			RBIKE			
		X1	Y1	Z1	X2	Y2	Z2	X3	Y3	Z3	X4	Y4	Z4	X5	Y5	Z5	X6	Y6	Z6	X7	Y7	Z7	X8	Y8	Z8	X9	Y9	Z9	X10	Y10	Z10	X11	Y11	Z11	X12	Y12	Z12	X13	Y13	Z13	X14	Y14	Z14	X15	Y15	Z15	X16	Y16	Z16	X17	Y17	Z17	X18	Y18	Z18	X19	Y19	Z19	X20	Y20	Z20	X21	Y21	Z21	X22	Y22	Z22	X23	Y23	Z23	X24	Y24	Z24	X25	Y25	Z25	X26	Y26	Z26	X27	Y27	Z27	X28	Y28	Z28	X29	Y29	Z29	X30	Y30	Z30	X31	Y31	Z31	X32	Y32	Z32	X33	Y33	Z33	X34	Y34	Z34	X35	Y35	Z35	X36	Y36	Z36	X37	Y37	Z37	X38	Y38	Z38	X39	Y39	Z39	X40	Y40	Z40	X41	Y41	Z41	X42	Y42	Z42	X43	Y43	Z43	X44	Y44	Z44	X45	Y45	Z45	X46	Y46	Z46	X47	Y47	Z47	X48	Y48	Z48	X49	Y49	Z49	X50	Y50	Z50	
0	0.0000	469.135487	1292.921280	-110.288958	471.039583	1272.322129	-405.117917	430.601341	1304.495289	-253.838117	436.419209	1165.828631	-249.139904	518.271478	1056.235741	-13.341336	698.683234	876.561675	-55.050447	481.588911	1011.403068	-511.035482	689.169062	876.069304	-451.662383	-49.506100	1134.835188	-240.908999	88.774693	1117.770732	-386.158310	99.938571	1117.981080	-93.914277	126.687219	1058.054178	-366.354684	134.134260	1057.042631	-112.471333	-14.765408	1161.963306	-181.467010	-19.186811	1169.280913	-289.584227	54.521871	981.053573	-43.851105	44.588465	1005.898402	-435.759449	139.952551	868.312077	-43.140569	209.652687	816.286798	-47.044168	240.846552	732.362994	-55.055778	236.058747	834.606311	-65.111810	284.356102	644.582503	-84.188348	272.053844	629.701206	-181.052996	211.573724	569.042793	-57.024315	182.398006	485.258289	-72.853722	115.842312	428.187913	-75.295274	204.852199	474.837501	-103.841145	56.730281	346.144006	-79.849777	61.297429	360.162307	-156.784158	-31.065508	331.048701	-120.747353	223.201096	254.906577	-126.436447	140.717295	260.440187	-60.490993	165.815721	941.377634	-433.382404	250.233300	931.835996	-427.301020	264.556394	964.552495	-414.814712	322.670098	877.618655	-424.044544	401.847719	820.620996	-406.418670	422.777343	811.792012	-309.757146	339.360648	462.483168	-406.689901	355.425843	474.549470	-335.207914	270.682917	421.952586	-367.799075	439.969865	388.560502	-433.842002	383.949876	721.919162	-426.190318	392.494024	636.007824	-416.747155	355.362058	555.473544	-413.651446	418.403083	635.124439	-386.799488	532.597846	411.391952	-367.334057	-65.526818	851.052485	-240.847529	21.248198	83.655667	-442.336486	21.211386	83.797073	-43.889284	
1	0.0050	469.171825	1292.845399	-110.323988	471.074894	1272.243020	-405.121385	430.633929	1304.444646	-253.830525	436.454741	1165.713835	-249.106917	518.236943	1056.181233	-13.258880	698.670896	876.569517	-55.036838	481.542341	1011.346627	-511.083881	689.152153	876.048683	-451.658412	-49.483361	1134.829061	-240.920049	88.791724	1117.775025	-386.148665	99.958543	1117.972854	-93.935648	126.709235	1058.063735	-366.338455	134.126663	1057.042259	-112.473641	-14.738219	1161.934238	-181.473766	-19.161413	1169.273516	-289.617887	54.525116	981.045627	-43.856285	44.594702	1005.874212	-435.740685	139.994266	868.288219	-43.137153	209.655280	816.289853	-47.042693	240.839007	732.352100	-55.069214	236.078137	834.580697	-65.130343	284.358240	644.560404	-84.190595	272.047614	629.665210	-181.046238	211.545741	569.010498	-57.027618	182.391098	485.243688	-72.860042	115.808868	428.191229	-75.300078	204.851527	474.832285	-103.840173	56.715358	346.140572	-79.857271	61.263244	360.154454	-156.788359	-31.106566	331.053119	-120.750715	223.179339	254.922883	-126.439204	140.706616	260.446527	-60.494691	165.817173	941.362976	-433.386613	250.262334	931.820626	-427.295658	264.583697	964.540935	-414.797733	322.685394	877.618631	-424.055337	401.862480	820.630078	-406.452097	422.786591	811.768584	-309.808756	339.370074	462.491512	-406.684268	355.468338	474.551815	-335.182014	270.682587	421.968100	-367.807715	439.965770	388.522832	-433.833438	383.978870	721.916834	-426.194262	392.520464	636.001010	-416.765160	355.393273	555.471913	-413.643977	418.434393	635.088372	-386.797498	532.626227	411.363451	-367.332971	-65.524856	851.046865	-240.849789	21.252859	83.664552	-442.344926	21.226719	83.773917	-43.889815	
2	0.0100	469.222552	1292.781166	-110.334590	471.104929	1272.188803	-405.129855	430.644262	1304.395863	-253.809905	436.480063	1165.634397	-249.093148	518.226820	1056.130269	-13.174886	698.673139	876.574454	-55.012048	481.500134	1011.259673	-511.130318	689.144956	876.049459	-451.666627	-49.456405	1134.848491	-240.910584	88.814538	1117.769212	-386.127428	99.973454	1117.971769	-93.929624	126.707958	1058.059745	-366.321022	134.142132	1057.041102	-112.444645	-14.738235	1161.957063	-181.474654	-19.133058	1169.257461	-289.590766	54.542680	981.038230	-43.833373	44.634509	1005.857647	-435.723810	140.008864	868.289092	-43.128777	209.652313	816.269064	-47.031751	240.855916	732.360571	-55.047036	236.073693	834.556177	-65.123048	284.374290	644.539902	-84.187580	272.061148	629.658429	-181.020870	211.553338	568.996531	-57.023090	182.376347	485.242994	-72.842021	115.804945	428.177439	-75.298112	204.833709	474.815453	-103.847807	56.684971	346.140139	-79.845814	61.209402	360.189016	-156.766967	-31.126435	331.041068	-120.749289	223.181718	254.940801	-126.437296	140.709791	260.463369	-60.496179	165.841376	941.369673	-433.366410	250.273861	931.825782	-427.282418	264.595571	964.541167	-414.803311	322.707512	877.616461	-424.043204	401.878133	820.624715	-406.448567	422.796624	811.771418	-309.796976	339.394814	462.485262	-406.667179	355.480642	474.551428	-335.191618	270.697370	421.990349	-367.778915	439.999257	388.462453	-433.798344	384.001727	721.921411	-426.194319	392.549886	636.006916	-416.771625	355.418398	555.454608	-413.658389	418.456303	635.086366	-386.793696	532.642585	411.339095	-367.334068	-65.523786	851.050180	-240.840899	21.252604	83.669300	-442.329525	21.238258	83.771501	-43.892118	
3	0.0150	469.135284	1293.564373	-110.108808	471.145009	1272.116255	-405.147190	430.685475	1304.347944	-253.784568	436.552062	1165.625073	-249.058416	518.479362	1055.965587	-12.842212	698.654849	876.520185	-55.044011	481.486800	1011.165988	-511.184383	689.130912	876.024213	-451.656205	-51.538347	1136.964786	-234.924985	88.817405	1117.831824	-386.076049	99.706804	1117.767570	-93.861999	126.718550	1058.056291	-366.337518	133.893767	1056.914496	-112.397090	-14.714005	1161.965629	-181.465167	-17.833744	1168.361039	-290.628393	54.585437	981.032745	-43.829780	44.640533	1005.870497	-435.736926	139.737186	867.832848	-43.159880	210.431126	815.986690	-46.594655	240.881743	732.343625	-55.037168	236.117188	834.556743	-65.087107	284.388437	644.536838	-84.165447	272.055652	629.657404	-181.015317	211.559744	568.995372	-56.994488	182.532653	485.089919	-72.561051	116.009551	428.014668	-75.349993	204.901973	474.622365	-103.891206	56.575747	345.963632	-79.688316	61.206768	360.169448	-156.769932	-31.128542	331.026603	-120.734778	223.200131	254.987804	-126.406465	140.702110	260.482067	-60.486676	165.870245	941.110415	-433.413771	250.296253	931.834728	-427.294386	264.392212	965.005716	-414.770572	322.731438	877.616764	-424.043983	401.889456	820.517121	-406.499687	422.892308	811.798462	-309.766184	339.174721	462.899108	-406.766726	354.975562	473.576763	-334.768695	270.626379	422.028962	-367.817067	440.010521	388.438819	-433.804145	384.032919	721.917678	-426.199114	392.734393	635.775222	-416.717815	355.542525	555.378502	-413.628087	418.527540	635.016556	-386.759107	532.648452	411.313007	-367.346001	-65.612121	851.151120	-241.183368	21.254515	83.677048	-442.341686	21.246987	83.769326	-43.878185	
4	0.0200	469.176380	1293.534736	-110.040496	471.092850	1272.267787	-405.239684	430.812868	1304.412483	-253.408637	436.436111	1166.577616	-249.382017	518.288933	1056.409373	-12.646372	698.372376	876.899130	-54.941898	481.248201	1011.435621	-511.362149	688.967210	876.171051	-451.745889	-51.405714	1136.975176	-234.974700	88.843306	1118.033349	-386.137782	99.516321	1118.069411	-93.935954	126.722984	1058.073579	-366.302213	133.974623	1056.926498	-112.322894	-14.678885	1162.079453	-181.496430	-17.763414	1168.341713	-290.758373	54.363399	981.315880	-43.860867	44.714165	1006.051403	-435.485198	139.579226	868.100878	-43.232544	210.263634	816.295376	-46.552141	240.714765	732.731382	-55.036802	236.044121	834.878643	-64.974574	284.202992	644.835980	-84.133406	271.881615	629.963601	-181.022926	211.385122	569.285963	-56.993317	182.399363	485.490157	-72.505111	115.683310	428.332574	-75.249574	204.871096	474.953451	-103.877045	56.527900	346.312486	-79.460756	60.677495	360.669931	-156.660156	-31.152138	331.047399	-120.784719	223.169525	255.298441	-126.238878	140.509494	260.728254	-60.429537	165.837488	941.363371	-433.345586	250.232602	932.040750	-427.085340	264.405229	965.026959	-414.797649	322.567043	877.813179	-424.098528	401.896296	820.495420	-406.655367	422.927408	812.025006	-309.774803	339.190201	462.895387	-406.779648	355.419953	474.760262	-334.910371	270.181880	422.150927	-368.244610	439.894701	388.658932	-433.893440	383.820098	722.301338	-426.510902	392.646882	636.037110	-416.640130	355.427450	555.590849	-413.541401	418.373988	635.315292	-386.829310	532.517864	411.514111	-367.489646	-65.601008	851.119880	-241.178700	21.165317	83.834715	-442.374525	21.161436	83.922847	-43.923005	
5	0.0250	469.252933	1293.480224	-110.016038	471.120174	1272.331593	-405.256530	430.832417	1304.309423	-253.535812	436.611241	1166.350509	-249.464088	518.229921	1056.491343	-12.562203	698.304549	876.970114	-54.914117	481.165408	1011.463967	-511.462787	688.974277	876.183547	-451.725618	-51.292014	1137.006389	-234.935361	88.847239	1118.101371	-386.068560	99.539134	1118.119946	-93.937218	126.727973	1058.096286	-366.301558	134.043569	1056.960137	-112.235178	-14.636324	1162.169511	-181.509783	-17.073929	1168.338169	-290.367498	54.366195	981.381778	-43.842321	44.683809	1006.057015	-435.486542	139.583813	868.171876	-43.198081	210.252139	816.348931	-46.567821	240.707722	732.822600	-55.022265	236.061322	834.941410	-64.907993	284.195844	644.898262	-84.121423	271.829959	630.047302	-181.040566	211.355420	569.356174	-56.955795	182.351154	485.572407	-72.544680	115.629962	428.395143	-75.217914	204.847491	475.023091	-103.877402	56.526029	346.387579	-79.395598	60.578987	360.743745	-156.607627	-31.142616	331.027304	-120.763651	223.162325	255.376935	-126.167352	140.490440	260.772666	-60.411568	165.849812	941.409462	-433.313177	250.241741	932.086087	-427.034773	264.429646	965.027072	-414.801693	322.608608	877.855753	-423.999351	401.943170	820.543396	-406.654100	422.976896	812.138068	-309.706995	339.227545	462.910071	-406.763666	355.379284	474.879135	-334.879038	270.455512	422.121047	-367.965414	439.900509	388.649819	-433.859817	383.914208	722.337615	-426.500608	392.652673	636.108850	-416.629327	355.441922	555.646049	-413.502114	418.453660	635.331422	-386.765697	532.544895	411.503244	-367.477063	-65.600491	851.113625	-241.163885	21.174293	83.820794	-442.302986	21.154216	83.988002	-43.915938	
